<?xml version="1.0" encoding="UTF-8" standalone="no"?>
<svg
   xmlns:dc="http://purl.org/dc/elements/1.1/"
   xmlns:cc="http://creativecommons.org/ns#"
   xmlns:rdf="http://www.w3.org/1999/02/22-rdf-syntax-ns#"
   xmlns:svg="http://www.w3.org/2000/svg"
   xmlns="http://www.w3.org/2000/svg"
   xmlns:sodipodi="http://sodipodi.sourceforge.net/DTD/sodipodi-0.dtd"
   xmlns:inkscape="http://www.inkscape.org/namespaces/inkscape"
   inkscape:version="1.0 (4035a4fb49, 2020-05-01)"
   sodipodi:docname="edit.svg"
   id="svg10"
   version="1.1"
   width="384pt"
   viewBox="0 0 384 384.006"
   height="384pt">
  <metadata
     id="metadata16">
    <rdf:RDF>
      <cc:Work
         rdf:about="">
        <dc:format>image/svg+xml</dc:format>
        <dc:type
           rdf:resource="http://purl.org/dc/dcmitype/StillImage" />
      </cc:Work>
    </rdf:RDF>
  </metadata>
  <defs
     id="defs14" />
  <sodipodi:namedview
     inkscape:current-layer="svg10"
     inkscape:window-maximized="0"
     inkscape:window-y="40"
     inkscape:window-x="3155"
     inkscape:cy="256"
     inkscape:cx="256"
     inkscape:zoom="1.96875"
     showgrid="false"
     id="namedview12"
     inkscape:window-height="1148"
     inkscape:window-width="1949"
     inkscape:pageshadow="2"
     inkscape:pageopacity="0"
     guidetolerance="10"
     gridtolerance="10"
     objecttolerance="10"
     borderopacity="1"
     bordercolor="#666666"
     pagecolor="#ffffff" />
  <path
     style="fill:#cceeff;fill-opacity:1"
     id="path2"
     fill="#4dd0e1"
     d="m167.996094 136.007812 120-119.996093 79.996094 80-119.996094 119.996093zm0 0" />
  <path
     style="fill:#ffcc00;fill-opacity:1"
     id="path4"
     fill="#ff7043"
     d="m64 240.003906 104-104 80 79.996094-104 104zm0 0" />
  <path
     id="path6"
     fill="#e0f7fa"
     d="m144 320.007812-24 24-72 16-24-24 16-72 24-24zm0 0" />
  <path
     style="fill:#1b50a5;fill-opacity:1"
     id="path8"
     fill="#1b50a5"
     d="m383.273438 91.484375c-.160157-.535156-.28125-1.078125-.496094-1.597656-.222656-.550781-.535156-1.046875-.824219-1.570313-.214844-.390625-.390625-.804687-.648437-1.183594-.589844-.878906-1.253907-1.703124-2.007813-2.453124l-79.992187-79.992188c-6.246094-6.25-16.375-6.25-22.625 0l-248 248c-2.160157 2.152344-3.648438 4.871094-4.300782 7.839844l-16 72c-1.1875 5.335937.4375 10.910156 4.300782 14.78125l.699218.699218-8.691406 8.6875c-6.246094 6.246094-6.246094 16.375 0 22.621094 3.128906 3.128906 7.21875 4.691406 11.3125 4.691406 4.097656 0 8.183594-1.5625 11.3125-4.691406l8.6875-8.6875.6875.6875c3.035156 3.035156 7.121094 4.691406 11.3125 4.691406 1.160156 0 2.320312-.128906 3.472656-.386718l72-16c2.96875-.65625 5.695313-2.152344 7.839844-4.304688l220.6875-220.6875v34.753906l-59.3125 59.3125c-6.246094 6.246094-6.246094 16.375 0 22.621094 3.128906 3.128906 7.21875 4.691406 11.3125 4.691406 4.097656 0 8.183594-1.5625 11.3125-4.691406l64-64c3-3 4.6875-7.070312 4.6875-11.308594v-80c0-1.050781-.109375-2.097656-.3125-3.136718-.09375-.480469-.277344-.921875-.414062-1.386719zm-239.273438 205.898437-57.375-57.375 81.375-81.378906 57.378906 57.378906zm-90.894531 45.101563-11.578125-11.574219 13.089844-58.878906 9.382812-9.402344 57.378906 57.378906-9.394531 9.390626zm194.894531-149.101563-57.375-57.375 97.375-97.378906 57.378906 57.378906zm0 0" />
</svg>
