<?xml version="1.0" encoding="UTF-8" standalone="no"?>
<svg
   xmlns:dc="http://purl.org/dc/elements/1.1/"
   xmlns:cc="http://creativecommons.org/ns#"
   xmlns:rdf="http://www.w3.org/1999/02/22-rdf-syntax-ns#"
   xmlns:svg="http://www.w3.org/2000/svg"
   xmlns="http://www.w3.org/2000/svg"
   xmlns:sodipodi="http://sodipodi.sourceforge.net/DTD/sodipodi-0.dtd"
   xmlns:inkscape="http://www.inkscape.org/namespaces/inkscape"
   id="Layer"
   enable-background="new 0 0 64 64"
   height="512"
   viewBox="0 0 64 64"
   width="512"
   version="1.1"
   sodipodi:docname="excel.svg"
   inkscape:version="1.0 (4035a4fb49, 2020-05-01)">
  <metadata
     id="metadata25">
    <rdf:RDF>
      <cc:Work
         rdf:about="">
        <dc:format>image/svg+xml</dc:format>
        <dc:type
           rdf:resource="http://purl.org/dc/dcmitype/StillImage" />
      </cc:Work>
    </rdf:RDF>
  </metadata>
  <defs
     id="defs23" />
  <sodipodi:namedview
     inkscape:document-rotation="0"
     pagecolor="#ffffff"
     bordercolor="#666666"
     borderopacity="1"
     objecttolerance="10"
     gridtolerance="10"
     guidetolerance="10"
     inkscape:pageopacity="0"
     inkscape:pageshadow="2"
     inkscape:window-width="1901"
     inkscape:window-height="1333"
     id="namedview21"
     showgrid="false"
     inkscape:zoom="1.96875"
     inkscape:cx="272.35069"
     inkscape:cy="273.80844"
     inkscape:window-x="1204"
     inkscape:window-y="171"
     inkscape:window-maximized="0"
     inkscape:current-layer="g10" />
  <path
     d="M 21.749999,41.046874 H 41.000001 V 59.093749 H 21.749999 Z"
     fill="#e0f7fa"
     id="path2"
     style="stroke-width:1.20312" />
  <g
     fill="#4dd0e1"
     id="g10"
     transform="matrix(1.2031249,0,0,1.2031249,-7.1250003,-5.8750003)">
    <path
       d="M 24,24 H 40 V 39 H 24 Z"
       id="path4"
       style="fill:#7cd5ff;fill-opacity:1" />
    <path
       d="m 54,39 v 11 c 0,2.21 -1.79,4 -4,4 H 40 V 39 Z"
       id="path6"
       style="fill:#7cd5ff;fill-opacity:1" />
    <path
       d="M 40,24 H 54 V 39 H 40 Z"
       id="path8"
       style="fill:#e0f7fa;fill-opacity:1" />
  </g>
  <path
     d="M 57.843749,10.96875 V 22.999999 H 41.000001 21.749999 4.9062501 V 10.96875 c 0,-2.6589063 2.1535936,-4.8124999 4.8124999,-4.8124999 h 43.3125 c 2.658907,0 4.812499,2.1535936 4.812499,4.8124999 z"
     fill="#ff7043"
     id="path12"
     style="fill:#ffcc00;fill-opacity:1;stroke-width:1.20312" />
  <path
     d="M 21.749999,41.046874 V 59.093749 H 9.71875 c -2.6589063,0 -4.8124999,-2.153592 -4.8124999,-4.812499 V 41.046874 Z"
     fill="#e0f7fa"
     id="path14"
     style="stroke-width:1.20312" />
  <path
     d="M 4.9062501,22.999999 H 21.749999 V 41.046874 H 4.9062501 Z"
     fill="#e0f7fa"
     id="path16"
     style="stroke-width:1.20312" />
  <path
     d="M 53.03125,3.75 H 9.71875 C 5.7376093,3.75 2.5,6.9876093 2.5,10.96875 v 43.3125 C 2.5,58.26239 5.7376093,61.5 9.71875,61.5 h 43.3125 C 57.01239,61.5 60.25,58.26239 60.25,54.28125 V 10.96875 C 60.25,6.9876093 57.01239,3.75 53.03125,3.75 Z m -28.875,34.890626 V 25.40625 h 14.4375 v 13.234376 z m 14.4375,4.812499 V 56.687501 H 24.15625 V 43.453125 Z M 7.3124999,25.40625 H 19.343751 V 38.640626 H 7.3124999 Z m 36.0937491,0 H 55.437501 V 38.640626 H 43.406249 Z M 9.71875,8.5624999 h 43.3125 c 1.327047,0 2.406251,1.0792028 2.406251,2.4062501 v 9.625001 H 7.3124999 V 10.96875 c 0,-1.3270473 1.0792028,-2.4062501 2.4062501,-2.4062501 z M 7.3124999,54.28125 V 43.453125 H 19.343751 V 56.687501 H 9.71875 c -1.3270473,0 -2.4062501,-1.079204 -2.4062501,-2.406251 z M 53.03125,56.687501 H 43.406249 V 43.453125 H 55.437501 V 54.28125 c 0,1.327047 -1.079204,2.406251 -2.406251,2.406251 z"
     fill="#012e52"
     id="path18"
     style="fill:#1b50a5;fill-opacity:1;stroke-width:1.20312" />
</svg>
