<?xml version="1.0" encoding="UTF-8"?>
<!DOCTYPE svg PUBLIC "-//W3C//DTD SVG 1.1//EN" "http://www.w3.org/Graphics/SVG/1.1/DTD/svg11.dtd">
<!-- Creator: CorelDRAW X7 -->
<svg xmlns="http://www.w3.org/2000/svg" xml:space="preserve" width="82.5498mm" height="21.1666mm" version="1.1" style="shape-rendering:geometricPrecision; text-rendering:geometricPrecision; image-rendering:optimizeQuality; fill-rule:evenodd; clip-rule:evenodd"
viewBox="0 0 82550 21167"
 xmlns:xlink="http://www.w3.org/1999/xlink">
 <defs>
  <style type="text/css">
   <![CDATA[
    .fil0 {fill:none}
    .fil4 {fill:#2862A8}
    .fil5 {fill:#EC3A02}
    .fil3 {fill:#2862A8;fill-rule:nonzero}
    .fil1 {fill:url(#id0)}
    .fil2 {fill:url(#id1)}
   ]]>
  </style>
  <linearGradient id="id0" gradientUnits="userSpaceOnUse" x1="4476.5" y1="15345.8" x2="54514.3" y2="15345.8">
   <stop offset="0" style="stop-opacity:0; stop-color:white"/>
   <stop offset="0.0313725" style="stop-opacity:0.807843; stop-color:#7399C6"/>
   <stop offset="0.0588235" style="stop-opacity:1; stop-color:#2862A8"/>
   <stop offset="0.941176" style="stop-opacity:1; stop-color:#2862A8"/>
   <stop offset="0.968627" style="stop-opacity:0.686275; stop-color:#97B3D5"/>
   <stop offset="1" style="stop-opacity:0; stop-color:white"/>
  </linearGradient>
  <linearGradient id="id1" gradientUnits="userSpaceOnUse" x1="63009.8" y1="15698.4" x2="76686.1" y2="15698.4">
   <stop offset="0" style="stop-opacity:0; stop-color:white"/>
   <stop offset="0.101961" style="stop-opacity:0.74902; stop-color:#85A6CE"/>
   <stop offset="0.25098" style="stop-opacity:1; stop-color:#2862A8"/>
   <stop offset="0.788235" style="stop-opacity:1; stop-color:#2862A8"/>
   <stop offset="0.909804" style="stop-opacity:0.717647; stop-color:#8EACD1"/>
   <stop offset="1" style="stop-opacity:0; stop-color:white"/>
  </linearGradient>
 </defs>
 <g id="Layer_x0020_1">
  <metadata id="CorelCorpID_0Corel-Layer"/>
  <rect class="fil0" x="-77" y="-9" width="82550" height="21167"/>
  <polygon class="fil1" points="4477,15169 54514,15169 54514,15523 4477,15523 "/>
  <polygon class="fil2" points="63010,15521 76686,15521 76686,15876 63010,15876 "/>
  <path class="fil3" d="M9109 12164l2528 -6265 1378 0 0 7845 -971 0 0 -4887c0,-158 11,-493 34,-1005 22,-512 41,-798 56,-858l-56 0c-98,286 -207,585 -328,897 -120,313 -248,636 -384,971 -135,335 -263,647 -383,937 -121,290 -260,627 -418,1010 -158,384 -294,706 -406,966 -113,259 -258,596 -435,1010 -177,414 -314,734 -412,959l-440 0c-83,-203 -269,-641 -559,-1315 -290,-673 -500,-1168 -632,-1484 -132,-316 -309,-741 -531,-1276 -222,-534 -415,-1014 -581,-1439 -166,-425 -320,-837 -463,-1236l-45 0c8,60 23,346 45,858 23,512 34,847 34,1005l0 4887 -959 0 0 -7845 1365 0 2540 6265 23 0z"/>
  <path class="fil3" d="M15098 9127l0 -767c535,-226 1084,-339 1649,-339 316,0 607,40 874,119 268,79 510,197 728,355 219,158 390,371 514,638 124,267 186,578 186,931l0 3669 -767 0 -102 -621 -11 0c-196,241 -452,429 -768,565 -316,135 -643,203 -982,203 -504,0 -931,-154 -1281,-463 -350,-309 -525,-771 -525,-1388 0,-565 198,-992 593,-1282 395,-289 893,-434 1495,-434 474,0 945,86 1411,259l23 0 0 -485c0,-429 -141,-745 -423,-948 -283,-203 -657,-305 -1124,-305 -466,0 -963,98 -1490,293zm3037 2168c-632,-151 -1091,-226 -1377,-226 -805,0 -1200,373 -1185,1118 0,270 99,489 299,654 199,166 449,249 750,249 527,0 1031,-230 1513,-689l0 -1106z"/>
  <path class="fil3" d="M21679 9060l11 0c218,-354 501,-614 847,-779 346,-166 703,-248 1072,-248 90,0 177,7 260,22l0 881c-45,0 -91,0 -136,0 -256,0 -498,28 -728,84 -229,57 -419,126 -570,209 -150,83 -282,171 -395,265 -113,94 -196,177 -248,249 -53,71 -79,122 -79,152l0 282 0 3556 -926 0 0 -5565 722 0 170 892z"/>
  <polygon class="fil3" points="24847,5289 25761,5289 25761,10663 25773,10663 28380,8191 29566,8191 26856,10742 29566,13744 28425,13744 25773,10787 25761,10787 25761,13744 24847,13744 "/>
  <path class="fil3" d="M30827 11148c0,339 57,636 170,892 112,256 269,457 468,604 199,146 420,254 660,321 241,68 505,102 791,102 511,0 1019,-98 1523,-293l0 778c-594,219 -1177,328 -1749,328 -384,0 -740,-53 -1067,-158 -327,-106 -619,-267 -875,-486 -256,-218 -457,-508 -604,-869 -146,-361 -220,-775 -220,-1242 0,-82 0,-161 0,-237 23,-429 90,-812 203,-1151 113,-339 252,-611 418,-818 166,-207 358,-379 576,-514 218,-135 434,-231 649,-288 214,-56 434,-84 660,-84 8,0 15,0 23,0 670,15 1209,248 1620,699 410,452 615,1133 615,2044 0,120 -4,244 -11,372l-3850 0zm57 -779l2833 0c-15,-497 -147,-877 -395,-1140 -248,-263 -549,-395 -903,-395 -369,0 -706,139 -1010,418 -305,278 -480,651 -525,1117z"/>
  <path class="fil3" d="M37607 6667l0 1512 1648 0 0 790 -1648 0 0 3206c0,286 86,506 259,661 173,154 422,231 745,231 226,0 474,-38 745,-113l0 779c-361,105 -696,158 -1004,158 -527,0 -935,-139 -1225,-418 -290,-278 -435,-643 -435,-1095l0 -3409 -1050 0 0 -790 1050 0 0 -1512 915 0z"/>
  <polygon class="fil3" points="43155,5888 44103,5888 44103,13733 43155,13733 "/>
  <path class="fil3" d="M46757 8958l23 0c180,-293 438,-523 773,-688 335,-166 690,-249 1067,-249 504,0 933,156 1286,469 354,312 531,769 531,1371l0 3872 -914 11 0 -3747c0,-392 -104,-685 -311,-881 -207,-195 -465,-293 -773,-293 -143,0 -290,22 -440,67 -271,76 -538,230 -802,463 -263,234 -395,392 -395,474l0 350 0 3556 -914 0 0 -5554 711 0 158 779z"/>
  <path class="fil3" d="M66489 8179l915 0 0 3680c0,392 137,696 412,915 274,218 596,327 965,327 369,0 688,-109 959,-327 271,-219 407,-523 407,-915l0 -3680 914 0 0 3691c0,640 -226,1137 -677,1491 -452,353 -986,530 -1603,530 -391,0 -758,-73 -1101,-220 -342,-147 -626,-376 -852,-689 -226,-312 -339,-683 -339,-1112l0 -3691z"/>
  <path class="fil3" d="M73894 6667l0 1512 1648 0 0 790 -1648 0 0 3206c0,286 87,506 260,661 173,154 421,231 745,231 226,0 474,-38 745,-113l0 779c-361,105 -696,158 -1005,158 -526,0 -935,-139 -1224,-418 -290,-278 -435,-643 -435,-1095l0 -3409 -1050 0 0 -790 1050 0 0 -1512 914 0z"/>
  <path class="fil3" d="M7032 17634c-9,15 -18,26 -28,33 -10,8 -23,12 -39,12 -17,0 -36,-9 -58,-25 -23,-17 -51,-36 -85,-56 -34,-21 -76,-39 -124,-56 -48,-17 -106,-25 -175,-25 -64,0 -122,8 -171,25 -50,18 -91,42 -124,71 -34,30 -59,65 -76,105 -17,40 -25,84 -25,131 0,59 15,108 44,148 29,39 68,72 116,100 48,28 103,52 164,72 61,21 124,42 188,64 64,22 126,46 187,73 61,27 116,62 164,104 48,42 87,93 116,153 29,61 44,135 44,224 0,93 -16,180 -48,262 -32,82 -78,153 -139,214 -61,61 -136,108 -225,143 -88,35 -190,52 -303,52 -138,0 -263,-25 -377,-75 -114,-50 -211,-118 -291,-204l83 -137c8,-12 18,-21 29,-28 12,-8 24,-12 38,-12 21,0 45,12 72,34 26,23 60,47 100,74 40,26 89,51 146,74 57,22 127,33 209,33 69,0 130,-10 183,-28 54,-19 100,-46 137,-80 37,-35 65,-75 85,-123 20,-48 30,-101 30,-159 0,-65 -15,-118 -44,-159 -29,-41 -68,-75 -115,-103 -48,-28 -102,-52 -163,-71 -61,-20 -124,-39 -188,-60 -64,-20 -126,-43 -187,-70 -61,-27 -116,-62 -164,-104 -47,-43 -86,-97 -115,-161 -29,-64 -44,-143 -44,-237 0,-75 15,-148 44,-219 29,-70 72,-133 127,-187 56,-55 125,-99 207,-131 82,-33 175,-50 282,-50 119,0 227,19 326,57 98,38 184,93 257,165l-70 137zm3844 -338l0 244 -689 0 0 1893 -289 0 0 -1893 -693 0 0 -244 1671 0zm4045 1072c0,160 -26,307 -76,441 -51,133 -122,249 -215,345 -92,96 -203,171 -332,224 -130,53 -273,80 -430,80 -157,0 -300,-27 -429,-80 -129,-53 -240,-128 -332,-224 -92,-96 -164,-212 -214,-345 -51,-134 -76,-281 -76,-441 0,-160 25,-306 76,-440 50,-134 122,-249 214,-346 92,-97 203,-173 332,-226 129,-54 272,-81 429,-81 157,0 300,27 430,81 129,53 240,129 332,226 93,97 164,212 215,346 50,134 76,280 76,440zm-297 0c0,-131 -18,-249 -53,-353 -36,-105 -87,-193 -152,-265 -66,-72 -145,-128 -238,-166 -94,-39 -198,-58 -313,-58 -114,0 -218,19 -311,58 -94,38 -173,94 -239,166 -66,72 -117,160 -153,265 -36,104 -53,222 -53,353 0,131 17,249 53,353 36,104 87,192 153,264 66,72 145,127 239,165 93,39 197,58 311,58 115,0 219,-19 313,-58 93,-38 172,-93 238,-165 65,-72 116,-160 152,-264 35,-104 53,-222 53,-353zm4100 624c16,0 30,7 43,19l113 125c-87,101 -193,181 -317,237 -125,57 -275,85 -451,85 -154,0 -293,-27 -418,-80 -125,-53 -232,-127 -320,-223 -89,-96 -157,-211 -206,-345 -48,-134 -73,-281 -73,-443 0,-161 27,-308 79,-442 52,-134 125,-249 219,-346 94,-96 207,-171 339,-224 131,-53 276,-80 435,-80 157,0 293,25 406,74 114,49 215,116 303,200l-94 130c-7,10 -15,18 -24,25 -9,6 -22,9 -38,9 -13,0 -27,-5 -41,-14 -15,-10 -32,-21 -52,-35 -20,-14 -43,-29 -70,-45 -27,-16 -58,-30 -95,-44 -37,-14 -79,-26 -128,-36 -49,-9 -105,-13 -168,-13 -114,0 -219,19 -313,58 -95,39 -177,95 -246,168 -68,72 -121,161 -159,265 -39,104 -58,221 -58,350 0,133 19,251 58,356 38,104 90,192 156,264 66,72 144,127 234,164 91,38 188,57 292,57 64,0 121,-4 171,-11 51,-8 98,-19 141,-35 43,-16 84,-36 121,-61 37,-24 74,-53 112,-87 17,-14 33,-22 49,-22zm2758 -758l109 0c38,0 68,-5 90,-14 23,-10 44,-25 63,-48l711 -804c21,-25 43,-43 63,-53 20,-11 46,-16 78,-16l246 0 -813 920c-21,23 -40,43 -59,58 -18,16 -38,29 -59,39 28,9 52,22 73,40 21,18 43,41 66,67l848 1011 -250 0c-19,0 -35,-1 -48,-4 -12,-3 -23,-7 -33,-12 -9,-5 -18,-12 -26,-19 -8,-8 -16,-17 -24,-26l-737 -847c-11,-12 -21,-22 -30,-31 -10,-8 -21,-15 -33,-21 -12,-6 -27,-10 -43,-13 -16,-2 -37,-3 -61,-3l-131 0 0 976 -287 0 0 -2135 287 0 0 935zm8157 -600c-9,15 -18,26 -28,33 -10,8 -23,12 -39,12 -17,0 -36,-9 -58,-25 -23,-17 -51,-36 -85,-56 -34,-21 -76,-39 -124,-56 -48,-17 -106,-25 -175,-25 -64,0 -122,8 -171,25 -50,18 -91,42 -124,71 -34,30 -59,65 -76,105 -17,40 -25,84 -25,131 0,59 15,108 44,148 29,39 68,72 116,100 48,28 103,52 164,72 61,21 124,42 188,64 64,22 126,46 187,73 61,27 116,62 164,104 48,42 87,93 116,153 29,61 44,135 44,224 0,93 -16,180 -48,262 -32,82 -78,153 -139,214 -61,61 -136,108 -225,143 -88,35 -190,52 -303,52 -138,0 -263,-25 -377,-75 -114,-50 -211,-118 -291,-204l83 -137c8,-12 18,-21 29,-28 12,-8 24,-12 38,-12 21,0 45,12 72,34 26,23 60,47 100,74 40,26 89,51 146,74 57,22 127,33 209,33 69,0 130,-10 183,-28 54,-19 100,-46 137,-80 37,-35 65,-75 85,-123 20,-48 30,-101 30,-159 0,-65 -15,-118 -44,-159 -29,-41 -68,-75 -115,-103 -48,-28 -102,-52 -163,-71 -61,-20 -124,-39 -188,-60 -64,-20 -126,-43 -187,-70 -61,-27 -116,-62 -164,-104 -47,-43 -86,-97 -115,-161 -29,-64 -44,-143 -44,-237 0,-75 15,-148 44,-219 29,-70 72,-133 127,-187 56,-55 125,-99 207,-131 82,-33 175,-50 282,-50 119,0 227,19 326,57 98,38 184,93 257,165l-70 137zm3895 1358c15,0 30,7 43,19l113 125c-87,101 -193,181 -318,237 -124,57 -275,85 -450,85 -154,0 -294,-27 -419,-80 -125,-53 -232,-127 -320,-223 -88,-96 -157,-211 -205,-345 -49,-134 -73,-281 -73,-443 0,-161 26,-308 78,-442 52,-134 125,-249 220,-346 94,-96 207,-171 338,-224 132,-53 277,-80 436,-80 157,0 292,25 406,74 113,49 214,116 302,200l-93 130c-7,10 -15,18 -24,25 -9,6 -22,9 -39,9 -13,0 -26,-5 -41,-14 -14,-10 -31,-21 -51,-35 -20,-14 -43,-29 -70,-45 -27,-16 -59,-30 -95,-44 -37,-14 -80,-26 -129,-36 -48,-9 -104,-13 -168,-13 -114,0 -218,19 -313,58 -95,39 -177,95 -245,168 -69,72 -122,161 -160,265 -38,104 -57,221 -57,350 0,133 19,251 57,356 38,104 90,192 156,264 66,72 144,127 235,164 90,38 187,57 291,57 64,0 121,-4 172,-11 50,-8 97,-19 141,-35 43,-16 83,-36 120,-61 37,-24 75,-53 112,-87 17,-14 34,-22 50,-22zm2758 -448l0 892 -288 0 0 -2137 603 0c135,0 252,14 350,41 99,28 180,67 244,119 64,51 111,114 142,187 31,73 46,154 46,245 0,76 -12,146 -36,212 -23,65 -58,124 -103,176 -45,53 -100,97 -165,134 -65,37 -139,64 -221,83 35,21 67,51 95,91l622 849 -256 0c-53,0 -91,-21 -116,-61l-554 -764c-17,-24 -35,-41 -55,-51 -20,-11 -50,-16 -89,-16l-219 0zm0 -211l302 0c84,0 159,-10 223,-31 64,-20 118,-49 161,-86 43,-37 75,-82 97,-133 22,-52 33,-109 33,-171 0,-127 -42,-223 -126,-287 -84,-64 -209,-96 -375,-96l-315 0 0 804zm4820 -1034l0 235 -1024 0 0 709 829 0 0 226 -829 0 0 730 1024 0 0 235 -1314 0 0 -2135 1314 0zm3635 0l0 235 -1024 0 0 709 829 0 0 226 -829 0 0 730 1024 0 0 235 -1314 0 0 -2135 1314 0zm2470 0c26,0 45,3 57,10 13,6 27,20 43,39l1235 1608c-3,-25 -5,-51 -6,-75 -1,-24 -1,-48 -1,-71l0 -1511 253 0 0 2135 -146 0c-23,0 -42,-4 -57,-12 -15,-8 -31,-21 -46,-40l-1234 -1606c2,24 4,49 5,73 1,23 1,45 1,65l0 1520 -253 0 0 -2135 149 0zm5322 0l0 235 -1024 0 0 709 829 0 0 226 -829 0 0 730 1024 0 0 235 -1315 0 0 -2135 1315 0zm2638 1245l0 892 -288 0 0 -2137 603 0c135,0 252,14 350,41 98,28 180,67 244,119 64,51 111,114 142,187 30,73 46,154 46,245 0,76 -12,146 -36,212 -24,65 -58,124 -103,176 -45,53 -100,97 -165,134 -65,37 -139,64 -222,83 36,21 68,51 96,91l622 849 -256 0c-53,0 -92,-21 -116,-61l-554 -764c-17,-24 -35,-41 -55,-51 -20,-11 -50,-16 -90,-16l-218 0zm0 -211l302 0c84,0 159,-10 223,-31 64,-20 117,-49 160,-86 44,-37 76,-82 98,-133 22,-52 32,-109 32,-171 0,-127 -41,-223 -125,-287 -84,-64 -209,-96 -375,-96l-315 0 0 804z"/>
  <g id="_2588317158880">
   <path class="fil4" d="M59181 3562c968,0 1882,233 2688,646l-3707 3664c-403,397 -415,569 -212,891l689 1114c247,392 272,693 44,1046l-2383 3698c-1804,-1010 -3023,-2940 -3023,-5154 0,-3261 2643,-5905 5904,-5905zm3438 1105c1493,1071 2466,2822 2466,4800 0,3261 -2643,5904 -5904,5904 -811,0 -1584,-164 -2288,-460l3712 -3788c227,-231 354,-416 69,-888l-731 -1210c-222,-368 -135,-618 42,-854l2634 -3504zm-1602 4469l756 1251c255,423 151,786 -126,1012l-3638 2970c376,89 769,137 1172,137 2783,0 5039,-2256 5039,-5039 0,-1499 -655,-2845 -1693,-3768l-1537 2563c-178,298 -173,544 27,874zm-4707 4472l1379 -2848c171,-353 134,-671 -58,-978l-723 -1152c-209,-332 -168,-702 127,-935l3789 -2993c-515,-178 -1068,-274 -1643,-274 -2783,0 -5039,2256 -5039,5039 0,1716 858,3231 2168,4141z"/>
   <path class="fil5" d="M58506 7931l5034 -4997 -3859 5133c-239,318 -353,531 -47,1038l640 1059c204,338 216,594 -60,893l-4862 5277 3745 -5464c247,-361 252,-457 -10,-874l-661 -1053c-266,-424 -225,-709 80,-1012z"/>
  </g>
 </g>
</svg>
