<?xml version="1.0" encoding="UTF-8" standalone="no"?>
<svg
   height="384pt"
   viewBox="-80 0 384 384"
   width="384pt"
   version="1.1"
   id="svg12"
   sodipodi:docname="012-plug — копия.svg"
   inkscape:version="1.1 (c68e22c387, 2021-05-23)"
   xmlns:inkscape="http://www.inkscape.org/namespaces/inkscape"
   xmlns:sodipodi="http://sodipodi.sourceforge.net/DTD/sodipodi-0.dtd"
   xmlns="http://www.w3.org/2000/svg"
   xmlns:svg="http://www.w3.org/2000/svg">
  <defs
     id="defs16" />
  <sodipodi:namedview
     id="namedview14"
     pagecolor="#ffffff"
     bordercolor="#666666"
     borderopacity="1.0"
     inkscape:pageshadow="2"
     inkscape:pageopacity="0.0"
     inkscape:pagecheckerboard="0"
     inkscape:document-units="pt"
     showgrid="false"
     inkscape:zoom="1.7050781"
     inkscape:cx="155.12486"
     inkscape:cy="256.29324"
     inkscape:window-width="1908"
     inkscape:window-height="1300"
     inkscape:window-x="331"
     inkscape:window-y="46"
     inkscape:window-maximized="0"
     inkscape:current-layer="svg12" />
  <path
     d="m 228.35522,229.88429 -76.85404,77.03716 c -26.13087,26.19313 -67.247301,28.24945 -95.682923,6.03419 -2.370417,-1.86199 -4.612619,-3.85248 -6.789149,-6.03419 l -51.2360368,-51.3581 c -2.1765313,-2.18172 -4.1623038,-4.42927 -6.0198595,-6.80533 C -30.38925,220.25465 -28.337808,179.04026 -2.2069288,152.84713 L 74.647123,75.809982 Z m 0,0"
     fill="#cceeff"
     id="path2"
     style="stroke-width:1.13351" />
  <path
     d="M 55.818257,312.95564 23.41109,345.44 c -7.04558,7.06239 -18.5724396,7.06239 -25.6180188,0 L -40.633957,306.92145 c -7.04558,-7.06237 -7.04558,-18.6167 0,-25.67906 l 32.4071687,-32.48437 c 1.8575557,2.37606 3.8433282,4.62361 6.0198595,6.80533 l 51.2360368,51.3581 c 2.17653,2.18171 4.418732,4.1722 6.789149,6.03419 z m 0,0"
     fill="#ffcc00"
     id="path4"
     style="stroke-width:1.13351" />
  <g
     fill="#1b50a5"
     id="g10"
     transform="matrix(0.80056307,0.80247033,-0.80056307,0.80247033,151.50118,-26.906222)">
    <path
       d="M 128,176 H 96 c -8.832031,0 -16,7.16797 -16,16 0,8.83203 7.167969,16 16,16 h 32 c 8.83203,0 16,-7.16797 16,-16 0,-8.83203 -7.16797,-16 -16,-16 z m 0,0"
       id="path6" />
    <path
       d="M 48,0 C 39.167969,0 32,7.167969 32,16 V 96 H 16 C 7.167969,96 0,103.16797 0,112 v 96 c 0,35.43359 23.265625,66.0625 56,76.33594 V 312 c 0,17.64844 14.351562,32 32,32 h 8 v 24 c 0,8.83203 7.16797,16 16,16 8.83203,0 16,-7.16797 16,-16 v -24 h 8 c 17.64844,0 32,-14.35156 32,-32 V 284.33594 C 200.73437,274.0625 224,243.43359 224,208 v -96 c 0,-8.83203 -7.16797,-16 -16,-16 H 192 V 16 C 192,7.167969 184.83203,0 176,0 167.16797,0 160,7.167969 160,16 V 96 H 64 V 16 C 64,7.167969 56.832031,0 48,0 Z m 88,312 H 88 v -24 h 48 z m 56,-104 c 0,24.18359 -18.03125,44.65625 -41.9375,47.64062 -2,0.23829 -4,0.35938 -6.0625,0.35938 H 80 c -2.054688,0 -4.0625,-0.12109 -6.0625,-0.35938 C 50.023438,252.65625 32,232.18359 32,208 v -80 h 160 z m 0,0"
       id="path8" />
  </g>
</svg>
