<?xml version="1.0" encoding="UTF-8" standalone="no"?>
<svg
   xmlns:dc="http://purl.org/dc/elements/1.1/"
   xmlns:cc="http://creativecommons.org/ns#"
   xmlns:rdf="http://www.w3.org/1999/02/22-rdf-syntax-ns#"
   xmlns:svg="http://www.w3.org/2000/svg"
   xmlns="http://www.w3.org/2000/svg"
   xmlns:sodipodi="http://sodipodi.sourceforge.net/DTD/sodipodi-0.dtd"
   xmlns:inkscape="http://www.inkscape.org/namespaces/inkscape"
   inkscape:version="1.0 (4035a4fb49, 2020-05-01)"
   sodipodi:docname="portfolio.svg"
   id="svg10"
   version="1.1"
   width="384pt"
   viewBox="0 0 384 384"
   height="384pt">
  <metadata
     id="metadata16">
    <rdf:RDF>
      <cc:Work
         rdf:about="">
        <dc:format>image/svg+xml</dc:format>
        <dc:type
           rdf:resource="http://purl.org/dc/dcmitype/StillImage" />
      </cc:Work>
    </rdf:RDF>
  </metadata>
  <defs
     id="defs14" />
  <sodipodi:namedview
     inkscape:current-layer="svg10"
     inkscape:window-maximized="0"
     inkscape:window-y="0"
     inkscape:window-x="134"
     inkscape:cy="256"
     inkscape:cx="256"
     inkscape:zoom="1.96875"
     showgrid="false"
     id="namedview12"
     inkscape:window-height="1342"
     inkscape:window-width="2526"
     inkscape:pageshadow="2"
     inkscape:pageopacity="0"
     guidetolerance="10"
     gridtolerance="10"
     objecttolerance="10"
     borderopacity="1"
     bordercolor="#666666"
     pagecolor="#ffffff" />
  <path
     style="fill:#cceeff;fill-opacity:1"
     id="path2"
     fill="#4dd0e1"
     d="m368 208v160h-352v-160h136v8c0 11.039062 4.480469 21.039062 11.679688 28.320312 7.28125 7.199219 17.28125 11.679688 28.320312 11.679688 22.078125 0 40-17.921875 40-40v-8zm0 0" />
  <path
     style="fill:#ffcc00;fill-opacity:1"
     id="path4"
     fill="#ff7043"
     d="m368 96v112h-136v-48h-80v48h-136v-112zm0 0" />
  <path
     id="path6"
     fill="#e0f7fa"
     d="m232 208v8c0 22.078125-17.921875 40-40 40-11.039062 0-21.039062-4.480469-28.320312-11.679688-7.199219-7.28125-11.679688-17.28125-11.679688-28.320312v-56h80zm0 0" />
  <path
     sodipodi:nodetypes="scsssscssssssssccccccccssssccccccsscscccccscccc"
     style="fill:#1b50a5;fill-opacity:1"
     id="path8"
     fill="#012e52"
     d="M 368,63.5 H 272 V 16 C 272,7.167969 264.83203,0 256,0 H 128 c -8.83203,0 -16,7.167969 -16,16 V 63.5 H 16 c -8.832031,0 -16,7.167969 -16,16 v 272 c 0,8.83203 7.167969,16 16,16 h 352 c 8.83203,0 16,-7.16797 16,-16 v -272 c 0,-8.832031 -7.16905,-16.137984 -16,-16 z M 144,32 h 96 v 31.5 h -96 z m 208,63.5 v 80 H 248 v -32 c 0,-8.83203 -7.16797,-16 -16,-16 h -80 c -8.83203,0 -16,7.16797 -16,16 v 32 H 32 v -80 z m -184,64 h 48 v 40 c 0,13.23047 -10.76953,24 -24,24 -6.40625,0 -12.47266,-2.50391 -16.94531,-6.92969 C 170.50391,211.97266 168,205.90625 168,199.5 Z m -136,176 v -128 h 104.63281 c 1.69531,11.86328 7.08594,22.89453 15.80078,31.69531 C 163.0625,249.70703 177.12109,255.5 192,255.5 c 28.15234,0 51.45703,-20.90234 55.35937,-48 H 352 v 128 z" />
</svg>
