<?xml version="1.0" encoding="UTF-8" standalone="no"?>
<svg
   xmlns:dc="http://purl.org/dc/elements/1.1/"
   xmlns:cc="http://creativecommons.org/ns#"
   xmlns:rdf="http://www.w3.org/1999/02/22-rdf-syntax-ns#"
   xmlns:svg="http://www.w3.org/2000/svg"
   xmlns="http://www.w3.org/2000/svg"
   xmlns:sodipodi="http://sodipodi.sourceforge.net/DTD/sodipodi-0.dtd"
   xmlns:inkscape="http://www.inkscape.org/namespaces/inkscape"
   id="Layer"
   enable-background="new 0 0 64 64"
   height="512"
   viewBox="0 0 64 64"
   width="512"
   version="1.1"
   sodipodi:docname="print.svg"
   inkscape:version="1.0 (4035a4fb49, 2020-05-01)">
  <metadata
     id="metadata19">
    <rdf:RDF>
      <cc:Work
         rdf:about="">
        <dc:format>image/svg+xml</dc:format>
        <dc:type
           rdf:resource="http://purl.org/dc/dcmitype/StillImage" />
      </cc:Work>
    </rdf:RDF>
  </metadata>
  <defs
     id="defs17" />
  <sodipodi:namedview
     inkscape:document-rotation="0"
     pagecolor="#ffffff"
     bordercolor="#666666"
     borderopacity="1"
     objecttolerance="10"
     gridtolerance="10"
     guidetolerance="10"
     inkscape:pageopacity="0"
     inkscape:pageshadow="2"
     inkscape:window-width="2111"
     inkscape:window-height="1255"
     id="namedview15"
     showgrid="false"
     inkscape:zoom="1.96875"
     inkscape:cx="256"
     inkscape:cy="256"
     inkscape:window-x="1046"
     inkscape:window-y="86"
     inkscape:window-maximized="0"
     inkscape:current-layer="Layer" />
  <path
     d="m 48.266667,45.333333 2.400001,16 H 13.333333 l 2.4,-16 1.600001,-10.666667 h 29.333334 z"
     fill="#e0f7fa"
     id="path2"
     style="stroke-width:1.33333" />
  <path
     d="m 61.333335,23.999999 v 16 c 0,2.946667 -2.386667,5.333334 -5.333334,5.333334 H 48.266667 L 46.666668,34.666666 H 17.333334 L 15.733333,45.333333 H 8.0000002 c -2.9466667,0 -5.3333334,-2.386667 -5.3333334,-5.333334 v -16 c 0,-2.946666 2.3866667,-5.333333 5.3333334,-5.333333 H 16 h 32.000001 8 c 2.946667,0 5.333334,2.386667 5.333334,5.333333 z"
     fill="#ff7043"
     id="path4"
     style="fill:#ffcc00;fill-opacity:1;stroke-width:1.33333" />
  <path
     d="M 16,2.6666667 H 48.000001 V 18.666666 H 16 Z"
     fill="#4dd0e1"
     id="path6"
     style="fill:#7cd5ff;fill-opacity:1;stroke-width:1.33333" />
  <g
     fill="#012e52"
     id="g12"
     transform="matrix(1.3333333,0,0,1.3333333,-10.666667,-10.666667)">
    <path
       d="M 50,20 H 46 V 10 C 46,8.896 45.104,8 44,8 H 20 c -1.104,0 -2,0.896 -2,2 v 10 h -4 c -3.309,0 -6,2.691 -6,6 v 12 c 0,3.309 2.691,6 6,6 h 3.477 l -1.455,9.703 c -0.086,0.576 0.083,1.161 0.462,1.602 C 16.864,55.746 17.418,56 18,56 h 28 c 0.582,0 1.136,-0.254 1.516,-0.695 0.38,-0.441 0.549,-1.026 0.462,-1.602 L 46.523,44 H 50 c 3.309,0 6,-2.691 6,-6 V 26 c 0,-3.309 -2.691,-6 -6,-6 z M 22,12 h 20 v 8 H 22 Z m -1.678,40 2.4,-16 h 18.556 l 2.4,16 z M 52,38 c 0,1.103 -0.897,2 -2,2 H 45.923 L 44.978,33.703 C 44.831,32.724 43.99,32 43,32 H 21 c -0.99,0 -1.831,0.724 -1.978,1.703 L 18.077,40 H 14 c -1.103,0 -2,-0.897 -2,-2 V 26 c 0,-1.103 0.897,-2 2,-2 h 36 c 1.103,0 2,0.897 2,2 z"
       id="path8"
       style="fill:#1b50a5;fill-opacity:1" />
    <path
       d="M 37,42 H 27 c -1.104,0 -2,0.896 -2,2 0,1.104 0.896,2 2,2 h 10 c 1.104,0 2,-0.896 2,-2 0,-1.104 -0.896,-2 -2,-2 z"
       id="path10"
       style="fill:#1b50a5;fill-opacity:1" />
  </g>
</svg>
