<?xml version="1.0" encoding="UTF-8" standalone="no"?>
<svg
   xmlns:dc="http://purl.org/dc/elements/1.1/"
   xmlns:cc="http://creativecommons.org/ns#"
   xmlns:rdf="http://www.w3.org/1999/02/22-rdf-syntax-ns#"
   xmlns:svg="http://www.w3.org/2000/svg"
   xmlns="http://www.w3.org/2000/svg"
   xmlns:sodipodi="http://sodipodi.sourceforge.net/DTD/sodipodi-0.dtd"
   xmlns:inkscape="http://www.inkscape.org/namespaces/inkscape"
   inkscape:version="1.0 (4035a4fb49, 2020-05-01)"
   sodipodi:docname="watchlist.svg"
   id="svg8"
   version="1.1"
   width="384pt"
   viewBox="0 -24 384 384"
   height="384pt">
  <metadata
     id="metadata14">
    <rdf:RDF>
      <cc:Work
         rdf:about="">
        <dc:format>image/svg+xml</dc:format>
        <dc:type
           rdf:resource="http://purl.org/dc/dcmitype/StillImage" />
      </cc:Work>
    </rdf:RDF>
  </metadata>
  <defs
     id="defs12" />
  <sodipodi:namedview
     inkscape:current-layer="svg8"
     inkscape:window-maximized="0"
     inkscape:window-y="0"
     inkscape:window-x="134"
     inkscape:cy="256"
     inkscape:cx="256"
     inkscape:zoom="1.96875"
     showgrid="false"
     id="namedview10"
     inkscape:window-height="1318"
     inkscape:window-width="1945"
     inkscape:pageshadow="2"
     inkscape:pageopacity="0"
     guidetolerance="10"
     gridtolerance="10"
     objecttolerance="10"
     borderopacity="1"
     bordercolor="#666666"
     pagecolor="#ffffff" />
  <path
     style="fill:#7cd5ff;fill-opacity:1"
     id="path2"
     fill="#4dd0e1"
     d="m360.878906 216.800781c4.5625 9.4375 7.121094 20 7.121094 31.199219 0 39.761719-32.238281 72-72 72-39.519531 0-71.679688-31.921875-72-71.359375 0-.242187 0-.402344 0-.640625 0-39.761719 32.238281-72 72-72 28.558594 0 53.199219 16.640625 64.878906 40.71875zm0 0" />
  <path
     style="fill:#7cd5ff;fill-opacity:1"
     id="path4"
     fill="#4dd0e1"
     d="m160 248v.640625c-.320312 39.4375-32.480469 71.359375-72 71.359375-39.761719 0-72-32.238281-72-72 0-11.199219 2.558594-21.761719 7.121094-31.199219v-.082031c11.679687-24.078125 36.320312-40.71875 64.878906-40.71875 39.761719 0 72 32.238281 72 72zm0 0" />
  <path
     style="fill:#1b50a5;fill-opacity:1"
     id="path6"
     fill="#012e52"
     d="m319.390625 11.640625c-1.949219-6.886719-8.230469-11.640625-15.390625-11.640625h-32c-8.832031 0-16 7.167969-16 16s7.167969 16 16 16h19.902344l38.273437 135.046875c-10.679687-4.535156-22.265625-7.046875-34.175781-7.046875-40.929688 0-75.3125 28.128906-85.113281 66.496094-12.320313-2.910156-25.335938-2.910156-37.664063-.023438-9.636718-38.128906-44.132812-66.472656-85.222656-66.472656-11.910156 0-23.496094 2.511719-34.175781 7.046875l38.273437-135.046875h19.902344c8.832031 0 16-7.167969 16-16s-7.167969-16-16-16h-32c-7.160156 0-13.441406 4.753906-15.390625 11.640625l-56.640625 199.886719c-5.265625 11.488281-7.96875 23.746094-7.96875 36.472656 0 48.519531 39.480469 88 88 88 44.390625 0 81.34375-33.3125 87.136719-76.816406 10.679687-3.976563 22.933593-3.984375 33.625-.03125 5.511719 43.207031 42.621093 76.847656 87.238281 76.847656 48.519531 0 88-39.480469 88-88 0-12.726562-2.703125-24.984375-7.960938-36.472656zm-231.390625 292.359375c-30.878906 0-56-25.128906-56-56 0-8.496094 1.855469-16.648438 5.527344-24.238281.136718-.28125.265625-.5625.375-.839844 9.617187-19.097656 28.738281-30.921875 50.097656-30.921875 30.878906 0 56 25.128906 56 56.503906-.246094 30.609375-25.367188 55.496094-56 55.496094zm208 0c-30.632812 0-55.753906-24.886719-56-56 0-30.871094 25.121094-56 56-56 21.359375 0 40.480469 11.824219 50.097656 30.910156.117188.28125.238282.5625.375.84375 3.671875 7.597656 5.527344 15.75 5.527344 24.246094 0 30.871094-25.121094 56-56 56zm0 0" />
</svg>
